<svg width="60" height="81" viewBox="0 0 60 81" fill="none" xmlns="http://www.w3.org/2000/svg">
<path d="M30.0014 0C13.4325 0 0 13.4325 0 30.0014C0 47.5231 18.5489 63.9887 26.4747 70.2243C28.5437 71.8514 31.4534 71.8514 33.5253 70.2243C41.4539 63.9858 60 47.5231 60 30.0014C60.0029 13.4296 46.5704 0 30.0014 0ZM30.0014 41.0924C23.5937 41.0924 18.3997 35.8984 18.3997 29.4906C18.3997 23.0829 23.5937 17.8889 30.0014 17.8889C36.4092 17.8889 41.6031 23.0829 41.6031 29.4906C41.6031 35.8984 36.4092 41.0924 30.0014 41.0924Z" fill="black"/>
<path d="M43.0638 68.8899C40.6619 71.0852 38.4523 72.9217 36.722 74.2847C34.8108 75.7827 32.4262 76.612 30.0014 76.612C27.5766 76.612 25.192 75.7855 23.2838 74.2847C21.5505 72.9217 19.3438 71.0852 16.9391 68.8899C9.92013 69.9804 5.23698 71.9116 5.23698 74.1241C5.23698 77.5302 16.325 80.2936 30.0014 80.2936C43.6778 80.2936 54.7659 77.5331 54.7659 74.1241C54.7659 71.9116 50.0799 69.9775 43.0638 68.8899Z" fill="black"/>
</svg>
