<svg width="100" height="118" viewBox="0 0 100 118" fill="none" xmlns="http://www.w3.org/2000/svg">
<path d="M4.01855 99.2272C0.309119 98.1453 0.618238 96.136 0 94.2813L29.83 58.2689L4.9459 17.1561C7.88253 6.4915 17.4652 10.9737 19.1654 13.1376C21.4838 8.65533 23.9567 6.4915 26.8934 6.4915L47.7589 37.4034C69.3972 12.5193 82.0711 0 85.7805 0C91.3447 0 92.7357 3.40031 92.7357 8.03709C97.6816 9.73725 100 12.2102 100 15.3014L62.5966 59.1963L84.5441 88.5626C86.7079 90.881 89.6445 96.4451 79.289 97.8362C78.0526 102.009 70.9428 105.255 69.7063 102.937C68.0062 106.646 65.3787 109.119 61.6692 109.583L43.7403 82.9985L17.6198 117.002C13.4467 119.165 11.4374 115.92 11.2828 111.901C4.48223 111.901 3.09119 110.046 0.772798 102.937L3.70943 98.9181L4.01855 99.2272Z" fill="black"/>
</svg>
