<svg width="200" height="59" viewBox="0 0 200 59" fill="none" xmlns="http://www.w3.org/2000/svg">
<path d="M100.201 11.641C101.42 11.641 102.61 11.7653 103.76 12.0017C103.168 11.0907 102.639 10.1117 102.107 9.01064L102.091 8.97709L102.09 8.97748L100.201 4.82173L98.3116 8.97748C98.2992 9.00494 98.2859 9.03177 98.272 9.05807C97.7479 10.1399 97.225 11.1038 96.6423 12.0016C97.7916 11.7653 98.9818 11.641 100.201 11.641ZM35.4336 29.8715C36.2144 29.8715 36.8473 30.5045 36.8473 31.2853C36.8473 32.0661 36.2144 32.6991 35.4336 32.6991H1.41379C0.632988 32.6991 0 32.0661 0 31.2853C0 30.5045 0.632988 29.8715 1.41379 29.8715H35.4336ZM59.7692 32.7318C59.5845 32.6302 59.4198 32.4856 59.2913 32.3008L59.1147 32.0461C56.0416 28.7741 53.333 25.1632 50.7951 21.7791C48.5313 18.7607 46.4076 15.929 44.3121 13.7427C41.0667 10.3566 36.9463 9.53232 33.8745 10.3305C32.8842 10.5878 32.0159 11.0121 31.3407 11.569C30.7178 12.0828 30.2637 12.7105 30.0432 13.4197C29.5571 14.9834 30.1739 17.0538 32.5227 19.384C38.0833 24.9005 48.2637 28.83 58.665 32.8447C59.3219 33.0983 59.9797 33.3522 60.6374 33.6069C60.3447 33.3187 60.0555 33.0268 59.7692 32.7318ZM57.5011 24.1553C58.5299 26.1165 59.8771 28.1776 61.3291 30.2813C62.0278 31.0185 62.7448 31.7352 63.4818 32.4241C62.4047 28.7254 62.7813 24.7826 63.0662 21.7999C63.1863 20.5421 63.2879 19.4791 63.2282 18.7831C63.0347 16.5268 61.6486 15.0906 60.0719 14.5387C59.4956 14.337 58.8946 14.2522 58.3186 14.2876C57.778 14.3208 57.266 14.4628 56.8293 14.7165C55.8738 15.2717 55.2533 16.4472 55.468 18.3067C55.6819 20.159 56.4343 22.1215 57.5011 24.1553ZM52.86 19.8381C52.7753 19.4325 52.7089 19.0288 52.6625 18.627C52.298 15.4704 53.5396 13.3654 55.4155 12.2756C56.2389 11.7972 57.1792 11.5309 58.1529 11.471C59.0913 11.4133 60.067 11.5504 60.9997 11.8768C63.5252 12.7608 65.7422 15.0236 66.0447 18.5511C66.1216 19.4482 66.0071 20.6468 65.8717 22.065C65.4093 26.906 64.6683 34.6742 72.0112 38.2705C72.2624 38.3835 72.5127 38.4972 72.762 38.6115C72.7846 38.621 72.8063 38.6309 72.829 38.6403C73.5488 38.9393 73.89 39.7651 73.5911 40.4849C73.2922 41.2047 72.4663 41.5459 71.7465 41.247C71.7183 41.2353 71.6912 41.223 71.6632 41.2112C71.0538 40.9623 70.4571 40.6921 69.8722 40.4026C65.9509 38.6781 61.7826 37.0691 57.6488 35.4735C46.9685 31.3511 36.515 27.3162 30.5346 21.3832C27.3262 18.2003 26.5671 15.1037 27.3482 12.5913C27.7383 11.3365 28.5085 10.2533 29.5514 9.3931C30.542 8.57597 31.7812 7.96252 33.1676 7.60229C37.0957 6.58164 42.3121 7.58056 46.3445 11.7877C48.4821 14.018 50.605 16.8318 52.86 19.8381ZM164.566 32.6991C163.786 32.6991 163.153 32.0661 163.153 31.2853C163.153 30.5045 163.786 29.8715 164.566 29.8715H198.586C199.367 29.8715 200 30.5045 200 31.2853C200 32.0661 199.367 32.6991 198.586 32.6991H164.566ZM140.709 32.3008C140.58 32.4856 140.415 32.6302 140.231 32.7318C139.945 33.0268 139.655 33.3187 139.363 33.6069C140.02 33.3522 140.678 33.0983 141.335 32.8447C151.736 28.83 161.917 24.9005 167.477 19.384C169.826 17.0538 170.443 14.9834 169.957 13.4197C169.736 12.7105 169.282 12.0828 168.659 11.569C167.984 11.0121 167.116 10.5878 166.125 10.3305C163.054 9.53232 158.933 10.3566 155.688 13.7427C153.592 15.929 151.469 18.7607 149.205 21.7791C146.667 25.1632 143.958 28.7741 140.885 32.0461L140.709 32.3008ZM138.671 30.2813C140.123 28.1776 141.47 26.1165 142.499 24.1553C143.566 22.1215 144.318 20.159 144.532 18.3067C144.747 16.4472 144.126 15.2717 143.171 14.7165C142.734 14.4628 142.222 14.3208 141.681 14.2876C141.105 14.2522 140.504 14.337 139.928 14.5387C138.351 15.0906 136.965 16.5268 136.772 18.7831C136.712 19.4791 136.814 20.5421 136.934 21.7999C137.219 24.7826 137.595 28.7253 136.518 32.4241C137.255 31.7352 137.972 31.0185 138.671 30.2813ZM147.338 18.627C147.291 19.0288 147.225 19.4325 147.14 19.8381C149.395 16.8318 151.518 14.018 153.656 11.7877C157.688 7.58056 162.904 6.58164 166.832 7.60229C168.219 7.96252 169.458 8.57597 170.449 9.3931C171.491 10.2533 172.262 11.3365 172.652 12.5913C173.433 15.1037 172.674 18.2003 169.465 21.3832C163.485 27.3162 153.032 31.3511 142.351 35.4735C138.217 37.0691 134.049 38.6781 130.128 40.4026C129.543 40.692 128.946 40.9623 128.337 41.2112C128.309 41.223 128.282 41.2353 128.253 41.247C127.534 41.5459 126.708 41.2047 126.409 40.4849C126.11 39.7651 126.451 38.9393 127.171 38.6403L127.238 38.6115C127.487 38.4972 127.738 38.3836 127.989 38.2705C135.332 34.6743 134.591 26.906 134.128 22.065C133.993 20.6468 133.878 19.4482 133.955 18.5511C134.258 15.0236 136.475 12.7608 139 11.8768C139.933 11.5504 140.909 11.4133 141.847 11.471C142.821 11.5309 143.761 11.7972 144.584 12.2756C146.46 13.3654 147.702 15.4704 147.338 18.627ZM103.664 5.61765C108.862 6.3747 113.516 8.80634 117.058 12.3471C120.606 15.8933 123.041 20.5509 123.798 25.7519L128.583 27.9274C128.886 28.064 129.143 28.3074 129.29 28.6343C129.61 29.3449 129.294 30.1807 128.583 30.5009L123.799 32.6762C123.052 37.808 120.671 42.4104 117.2 45.9381C113.639 49.5567 108.931 52.0435 103.664 52.8102L101.488 57.5964C101.351 57.8995 101.108 58.156 100.781 58.3033C100.07 58.6235 99.2344 58.3071 98.9142 57.5964L96.7394 52.8131C91.464 52.0457 86.7476 49.55 83.1829 45.9186C79.7232 42.394 77.3497 37.7993 76.6042 32.6765L71.8187 30.5009C71.5155 30.3643 71.2591 30.1209 71.1118 29.794C70.7915 29.0833 71.108 28.2476 71.8187 27.9273L76.6027 25.7523C77.3465 20.6428 79.7109 16.0574 83.1583 12.5348C86.7244 8.89082 91.4503 6.38598 96.739 5.61656L98.9143 0.831847C99.0508 0.528731 99.2942 0.272271 99.6212 0.124954C100.332 -0.195269 101.168 0.121207 101.488 0.831847L103.664 5.61765ZM121.858 24.8697C120.988 20.5125 118.838 16.618 115.815 13.5966C112.792 10.5746 108.899 8.42494 104.545 7.55698L104.664 7.81775L104.664 7.81793C105.42 9.38041 106.158 10.6495 107.089 11.7989C107.942 12.8511 108.981 13.8325 110.374 14.8833C111.178 15.455 111.931 16.0925 112.627 16.7882C113.323 17.4841 113.961 18.2381 114.533 19.0423C115.583 20.4352 116.564 21.4736 117.616 22.326C118.763 23.2556 120.029 23.992 121.587 24.7469L121.858 24.8697ZM104.545 50.8718C108.961 49.9911 112.903 47.7923 115.944 44.7024C118.898 41.6994 121 37.8541 121.857 33.5593L121.597 33.6771L121.597 33.6768C120.035 34.4332 118.766 35.1709 117.616 36.1023C116.564 36.955 115.583 37.9937 114.532 39.387C113.96 40.1908 113.323 40.9445 112.627 41.6401C111.931 42.3361 111.177 42.9739 110.373 43.5457C108.98 44.5962 107.942 45.5774 107.089 46.6293C106.16 47.7763 105.423 49.0425 104.668 50.6006L104.545 50.8718ZM78.5441 33.5585C79.3987 37.8439 81.4937 41.6822 84.4393 44.6829C87.4803 47.781 91.429 49.9862 95.8555 50.869L95.738 50.6105L95.7384 50.6103C94.9818 49.0478 94.2442 47.7787 93.3128 46.6293C92.4607 45.578 91.4229 44.5972 90.0312 43.5473C88.4209 42.4028 87.0119 40.9936 85.8674 39.3833C84.8176 37.9918 83.837 36.9542 82.7857 36.1022C81.6388 35.1727 80.3726 34.4362 78.8145 33.6814L78.5441 33.5585ZM95.8563 7.55815C91.4186 8.44325 87.4603 10.6583 84.4146 13.7705C81.483 16.7662 79.3979 20.5947 78.5457 24.8688L78.8046 24.7511L78.8048 24.7515C80.3673 23.995 81.6364 23.2574 82.7857 22.326C83.8379 21.4733 84.8193 20.4346 85.8701 19.0412C86.4418 18.2374 87.0793 17.4838 87.775 16.7882C88.4709 16.0922 89.2249 15.4544 90.0291 14.8826C91.422 13.832 92.4604 12.8508 93.3129 11.7989C94.2424 10.652 94.9788 9.38575 95.7337 7.82772L95.8563 7.55815ZM112.023 38.0284C112.058 37.9818 112.092 37.9355 112.126 37.8896C113.9 35.4553 114.947 32.457 114.947 29.2141C114.947 25.9723 113.9 22.9748 112.127 20.5409C112.091 20.4912 112.054 20.4411 112.017 20.3907C111.592 19.8232 111.128 19.2874 110.628 18.7873C110.125 18.2845 109.586 17.818 109.015 17.3917C108.969 17.3575 108.922 17.3234 108.876 17.2893C106.442 15.5153 103.444 14.4686 100.201 14.4686C96.9586 14.4686 93.9607 15.515 91.5266 17.2885C91.4773 17.3251 91.4275 17.3618 91.3775 17.3985C90.81 17.8229 90.2742 18.2872 89.7741 18.7873C89.2714 19.2901 88.8048 19.829 88.3785 20.3999C88.3443 20.4465 88.3102 20.4928 88.2761 20.5387C86.5021 22.973 85.4554 25.9713 85.4554 29.2141C85.4554 37.3579 92.0573 43.9597 100.201 43.9597C103.443 43.9597 106.44 42.9136 108.874 41.1406C108.924 41.1037 108.974 41.0668 109.024 41.0297C109.592 40.6054 110.128 40.141 110.628 39.641C111.131 39.1382 111.597 38.5992 112.023 38.0284ZM117.414 32.7728C118.324 32.1816 119.303 31.652 120.404 31.1202L120.438 31.1045L120.438 31.1036L124.593 29.2142L120.438 27.3248C120.41 27.3124 120.383 27.2991 120.357 27.2852C119.275 26.7611 118.311 26.2382 117.414 25.6555C117.65 26.8048 117.774 27.995 117.774 29.2141C117.774 30.4334 117.65 31.6235 117.414 32.7728ZM96.6422 46.4264C97.2334 47.3374 97.763 48.3164 98.2949 49.4176L98.3106 49.4512L98.3115 49.4508L100.201 53.6066L102.09 49.4508C102.103 49.4233 102.116 49.3965 102.13 49.3702C102.654 48.2884 103.177 47.3245 103.76 46.4267C102.61 46.6631 101.42 46.7873 100.201 46.7873C98.9817 46.7873 97.7915 46.6628 96.6422 46.4264ZM82.9884 25.6555C82.0775 26.2467 81.0985 26.7763 79.9975 27.3081L79.9639 27.3238L79.9643 27.3247L75.8086 29.2141L79.9643 31.1035C79.9918 31.1159 80.0186 31.1291 80.0449 31.143C81.1267 31.6672 82.0907 32.1902 82.9885 32.7728C82.7521 31.6235 82.6278 30.4334 82.6278 29.2141C82.6278 27.995 82.752 26.8048 82.9884 25.6555Z" fill="#D0EFB1"/>
</svg>
