<svg width="120" height="135" viewBox="0 0 120 135" fill="none" xmlns="http://www.w3.org/2000/svg">
<path d="M72.7853 12.1224C73.228 11.9 73.7683 12.077 73.9908 12.5197C74.2132 12.9624 74.0362 13.5027 73.5935 13.7252C67.5731 16.7739 64.0045 22.8238 62.3133 29.7272C61.7298 32.1154 61.3689 34.6035 61.21 37.1029H66.774C67.2712 37.1029 67.673 37.5047 67.673 38.0018C67.673 38.499 67.2712 38.9008 66.774 38.9008H61.1305C60.9807 44.7623 61.9046 50.5806 63.5981 55.2479C64.5244 57.7973 65.8615 60.0175 67.5186 61.9357C68.0158 62.5123 68.5425 63.0617 69.0964 63.5861C74.2927 58.1809 80.1995 53.9404 86.12 51.1368C90.6421 48.9938 95.1778 47.6816 99.4184 47.3229C108.29 46.5693 114.692 49.6067 117.818 53.8654C119.078 55.5817 119.809 57.4954 119.968 59.4522C120.126 61.4159 119.704 63.4113 118.653 65.2773C116.14 69.7427 109.99 73.4566 99.5319 74.0695C96.3265 74.2579 93.0053 74.1921 89.7182 73.8312C86.6263 73.4929 83.5616 72.8913 80.6422 71.9946C80.6036 71.9833 80.565 71.9674 80.5287 71.9515C77.7138 74.939 74.5765 77.5292 71.4482 80.1126C69.1895 81.9764 66.9352 83.8379 64.8217 85.8401C67.3211 92.8866 68.5629 100.659 68.009 108.952C67.5005 116.555 65.4823 124.591 61.5414 132.904C61.3689 133.27 61.1759 133.554 60.9625 133.753C60.6947 134.003 60.395 134.132 60.0636 134.135C59.7276 134.139 59.4234 134.014 59.151 133.76C58.9467 133.569 58.7582 133.295 58.5857 132.934C54.8219 124.991 52.8105 117.299 52.1885 110.001C51.4439 101.25 52.6993 93.0636 55.3326 85.6812L55.3258 85.6744C53.2532 83.7266 51.0648 81.9196 48.8719 80.1103C45.7187 77.5065 42.5541 74.8958 39.7233 71.8789C36.7925 72.8096 33.7097 73.4362 30.5997 73.7948C27.2104 74.1853 23.7779 74.2602 20.4681 74.0672C10.0097 73.4543 3.85989 69.7404 1.34687 65.2751C0.295802 63.409 -0.126441 61.4136 0.0324678 59.4499C0.189106 57.4954 0.922356 55.5794 2.18227 53.8632C5.30596 49.6044 11.7077 46.567 20.5816 47.3207C28.241 47.9722 36.8902 51.727 44.6858 57.8926C46.8446 59.5998 48.94 61.4953 50.9331 63.5589C51.4984 63.0231 52.0341 62.4601 52.5404 61.8699C54.1703 59.9675 55.4893 57.7678 56.4041 55.2502C58.0999 50.5806 59.0216 44.7623 58.8718 38.9031H53.4212C52.924 38.9031 52.5222 38.5013 52.5222 38.0041C52.5222 37.5069 52.924 37.1051 53.4212 37.1051H58.79C58.6311 34.6057 58.2702 32.1177 57.6867 29.7295C55.9978 22.8261 52.4269 16.7762 46.4065 13.7274C45.9638 13.505 45.7868 12.9647 46.0092 12.522C46.2317 12.0793 46.772 11.9022 47.2147 12.1247C53.7617 15.4414 57.6232 21.9294 59.4279 29.3073C59.6504 30.213 59.8388 31.1347 60 32.0632C60.1612 31.1324 60.3519 30.213 60.5721 29.3073C62.3768 21.9294 66.2383 15.4414 72.7853 12.1247V12.1224ZM59.1964 21.5889H60.9966V23.3891H59.1964V21.5889ZM59.1964 0H60.9966V1.80021H59.1964V0ZM59.1964 7.19628H60.9966V8.99649H59.1964V7.19628ZM59.1964 14.3926H60.9966V16.1928H59.1964V14.3926ZM56.0114 83.8628C56.3769 82.9366 56.7651 82.0218 57.1714 81.1228C54.2838 77.0275 50.8673 73.1002 47.0875 69.5361C43.3237 65.9856 39.208 62.8029 34.9061 60.1741L34.5701 59.9721C34.4021 59.8722 34.2886 59.8018 34.2387 59.7723L34.2069 59.7519C34.0571 59.6542 33.9231 59.5725 33.8005 59.5044C33.8459 59.627 33.9027 59.7655 33.9708 59.9221L33.9776 59.9403C34.0593 60.1401 34.1479 60.3512 34.2432 60.5691C34.3249 60.7553 34.4157 60.9618 34.5202 61.1866C38.0525 68.8573 44.0456 73.8062 50.0069 78.7255C52.0455 80.4077 54.0818 82.0876 56.0114 83.8651V83.8628ZM58.05 79.2681C58.3632 78.6347 58.6856 78.0082 59.0193 77.3907C56.6811 73.2228 53.8911 69.4226 50.8151 66.0537C49.957 66.762 49.0512 67.4181 48.1046 68.0242C48.1772 68.0923 48.2476 68.1581 48.3202 68.2262C51.9274 71.6291 55.2191 75.3635 58.0522 79.2681H58.05ZM46.7289 66.7665C47.73 66.1491 48.6857 65.4748 49.5824 64.7416C47.6642 62.7598 45.6483 60.9391 43.5711 59.2978C36.0548 53.3547 27.7529 49.7361 20.4295 49.1118C12.248 48.4171 6.41605 51.1186 3.62607 54.9233C2.56819 56.3671 1.95299 57.9653 1.82132 59.5884C1.69193 61.2025 2.04153 62.8483 2.91098 64.3943C5.15386 68.3761 10.8087 71.7018 20.5634 72.2716C23.7711 72.46 27.1014 72.3874 30.3931 72.006C33.124 71.6904 35.8209 71.166 38.3975 70.4055C36.2704 67.9357 34.3794 65.1752 32.8879 61.9357C32.7994 61.7428 32.7018 61.5248 32.5974 61.2842C32.5088 61.0799 32.418 60.8665 32.3249 60.6372C31.9867 59.8654 31.8391 59.2502 31.8664 58.7939C31.8936 58.3535 32.0593 58.013 32.3567 57.77C32.6473 57.5317 33.006 57.4386 33.426 57.4863C33.8845 57.5385 34.4679 57.7859 35.149 58.2263C35.3238 58.3308 35.4373 58.3966 35.494 58.4329L35.8368 58.6418C39.6484 60.9686 43.3146 63.72 46.7243 66.7688L46.7289 66.7665ZM65.9364 111.828C66.2292 108.961 65.9182 105.701 65.3075 102.691C64.5629 99.0136 63.3825 95.7333 62.3178 94.0012C61.8978 93.3156 61.462 92.6618 61.0125 92.0375C60.7355 91.6493 60.4495 91.2702 60.1589 90.8979C59.3893 91.8832 58.6652 92.9138 57.9978 94.0035C56.9194 95.7583 55.6618 99.1021 54.865 102.841C54.2339 105.797 53.8979 108.975 54.1749 111.779C54.9376 118.198 56.8128 124.92 60.0545 131.844C63.2939 124.936 65.1713 118.235 65.9364 111.833V111.828ZM61.3235 89.4768C61.7162 89.9694 62.0976 90.4734 62.4676 90.9887C62.9239 91.6221 63.3575 92.2691 63.7661 92.9297C63.2054 91.5744 62.5743 90.2124 61.8729 88.8503C61.6867 89.0569 61.5028 89.2657 61.3212 89.4768H61.3235ZM63.1736 87.4587C63.4574 87.9967 63.7321 88.537 63.9977 89.0796C63.8093 88.4553 63.6118 87.8355 63.4052 87.2226C63.328 87.3021 63.2508 87.3792 63.1736 87.4587ZM81.8545 70.4805C84.4515 71.2296 87.1665 71.7426 89.9088 72.0423C93.1006 72.3919 96.3242 72.4555 99.4343 72.2716C109.189 71.7018 114.844 68.3761 117.087 64.3943C117.956 62.8483 118.306 61.2025 118.176 59.5884C118.045 57.9653 117.43 56.3671 116.372 54.9233C113.582 51.1209 107.75 48.4171 99.5682 49.1118C95.5388 49.4546 91.2142 50.7077 86.8873 52.7576C81.1757 55.4636 75.4731 59.5544 70.4494 64.7688C71.3824 65.5271 72.3767 66.224 73.421 66.8573C76.9011 63.7722 80.6286 60.9891 84.4764 58.6395L84.8192 58.4307C84.876 58.3966 84.9918 58.3262 85.1643 58.2241C85.8453 57.7837 86.4288 57.5362 86.8873 57.484C87.3073 57.4363 87.666 57.5294 87.9565 57.7678C88.2539 58.0107 88.4219 58.3535 88.4469 58.7916C88.4741 59.2456 88.3288 59.8608 87.9883 60.6349C87.8953 60.862 87.8044 61.0776 87.7159 61.2819C87.6115 61.5226 87.5139 61.7405 87.4253 61.9335C85.918 65.2047 84.0043 67.9879 81.8522 70.4782L81.8545 70.4805ZM72.0362 68.1173C71.051 67.4952 70.1111 66.8188 69.219 66.0855C66.9488 68.5826 64.8354 71.3159 62.9443 74.2602C62.2906 75.2795 61.6617 76.3238 61.0647 77.393C61.3961 78.0059 61.7162 78.6257 62.0295 79.2545C62.622 78.4531 63.2349 77.6586 63.866 76.8731C66.3359 73.7971 69.0873 70.8505 72.0362 68.115V68.1173ZM60.8422 80.9071C60.5834 80.3668 60.3178 79.8311 60.0454 79.2999C58.5834 82.1512 57.3326 85.1636 56.3428 88.3168C57.6345 85.8151 59.1464 83.3339 60.8422 80.9071ZM65.2667 77.9991C60.4313 84.0217 56.6947 90.5393 54.7083 96.8865C55.285 95.3179 55.8979 93.9966 56.4677 93.0682C60.0976 87.1545 65.194 82.948 70.3109 78.7255C76.2722 73.8039 82.2676 68.8573 85.7977 61.1866C85.9021 60.9618 85.9929 60.7553 86.0746 60.5691C86.17 60.3512 86.2585 60.1401 86.3402 59.9403L86.347 59.9221C86.4151 59.7678 86.4719 59.6293 86.5173 59.5044C86.397 59.5725 86.2608 59.6542 86.1109 59.7519L86.0792 59.7723C86.0247 59.8041 85.918 59.8699 85.7477 59.9721L85.4117 60.1741C77.8976 64.762 70.8512 71.0434 65.2644 77.9991H65.2667ZM61.9137 55.8609C61.0897 53.593 60.4404 51.0618 60 48.3899C59.5573 51.0618 58.9103 53.593 58.0863 55.8609C57.0942 58.5918 55.6663 60.9755 53.9002 63.0367C53.3508 63.6792 52.7697 64.2876 52.159 64.8687C55.0829 68.0741 57.7549 71.6587 60.0431 75.5701C60.4926 74.7982 60.958 74.0377 61.437 73.2909C63.3757 70.2693 65.5459 67.4635 67.8751 64.8982C67.2757 64.333 66.7059 63.7359 66.1657 63.1116C64.37 61.0322 62.9194 58.6259 61.916 55.8609H61.9137Z" fill="#D0EFB1"/>
</svg>
