<svg width="80" height="75" viewBox="0 0 80 75" fill="none" xmlns="http://www.w3.org/2000/svg">
<path d="M66.4925 36.8721C66.4925 35.9877 65.7761 35.2721 64.8925 35.2721H15.0925C14.2089 35.2721 13.4925 35.9877 13.4925 36.8721C13.4925 37.7564 14.2089 38.4721 15.0925 38.4721H19.3921V72.4641C19.3921 73.3439 20.112 74.0641 20.9921 74.0641H58.9921C59.8721 74.0641 60.5921 73.3439 60.5921 72.4641V38.4721H64.8925C65.7761 38.4721 66.4925 37.7564 66.4925 36.8721ZM27.1425 42.1721H40.5604C41.444 42.1721 42.1604 42.8877 42.1604 43.7721C42.1604 44.6564 41.444 45.3721 40.5604 45.3721H27.1425C26.2589 45.3721 25.5425 44.6564 25.5425 43.7721C25.5425 42.8877 26.2589 42.1721 27.1425 42.1721ZM52.8425 66.0721H27.1425C26.2589 66.0721 25.5425 65.3564 25.5425 64.4721C25.5425 63.5877 26.2589 62.8721 27.1425 62.8721H52.8425C53.7261 62.8721 54.4425 63.5877 54.4425 64.4721C54.4425 65.3564 53.7261 66.0721 52.8425 66.0721ZM52.8425 55.7221H27.1425C26.2589 55.7221 25.5425 55.0064 25.5425 54.1221C25.5425 53.2377 26.2589 52.5221 27.1425 52.5221H52.8425C53.7261 52.5221 54.4425 53.2377 54.4425 54.1221C54.4425 55.0064 53.7261 55.7221 52.8425 55.7221Z" fill="black"/>
<path d="M60.5921 1.6C60.5921 0.720117 59.8721 0 58.9921 0H20.9921C20.112 0 19.3921 0.720117 19.3921 1.6V9.26426H60.5921V1.6Z" fill="black"/>
<path d="M74.432 12.4641H5.55205C2.496 12.4641 0 14.96 0 18.032V50.5119C0 53.5842 2.496 56.0801 5.55205 56.0801H16.1925V41.6721H15.0925C12.4456 41.6721 10.2925 39.5189 10.2925 36.8721C10.2925 34.2252 12.4456 32.0721 15.0925 32.0721H64.8925C67.5394 32.0721 69.6925 34.2252 69.6925 36.8721C69.6925 39.5189 67.5394 41.6721 64.8925 41.6721H63.7925V56.0801H74.432C77.504 56.0801 80 53.5842 80 50.5119V18.032C80 14.96 77.504 12.4641 74.432 12.4641ZM65.0081 22.4643C64.7034 22.7674 64.3034 22.9439 63.8714 22.9439C63.4558 22.9439 63.0558 22.7674 62.7519 22.4799C62.448 22.1752 62.2714 21.7596 62.2714 21.3439C62.2714 20.9111 62.448 20.4955 62.7519 20.208C63.344 19.6002 64.4159 19.6158 65.0081 20.208C65.312 20.4955 65.4714 20.9111 65.4714 21.3439C65.4714 21.7596 65.312 22.1752 65.0081 22.4643ZM73.0081 22.4643C72.7034 22.7674 72.2878 22.9439 71.8714 22.9439C71.4558 22.9439 71.0401 22.7674 70.7519 22.4643C70.448 22.1752 70.2714 21.7596 70.2714 21.3439C70.2714 20.9111 70.448 20.4955 70.7519 20.208C71.344 19.6158 72.3995 19.6158 73.0081 20.208C73.312 20.5111 73.4714 20.9111 73.4714 21.3439C73.4714 21.7596 73.312 22.1752 73.0081 22.4643Z" fill="black"/>
</svg>
