<svg width="90" height="60" viewBox="0 0 90 60" fill="none" xmlns="http://www.w3.org/2000/svg">
<path fill-rule="evenodd" clip-rule="evenodd" d="M43.6629 33.4973L1.93063 0.395039C2.43128 0.135104 2.98719 -0.000397794 3.5513 8.7718e-07H86.4477C87.0118 -0.000397794 87.5677 0.135104 88.0684 0.395039L46.41 33.4405C46.0022 33.7417 45.5069 33.9007 45 33.8933C44.5226 33.9142 44.0519 33.7748 43.6629 33.4973ZM57.7841 29.9247L90 55.4797V4.36974L57.7841 29.9247ZM0 4.36974V55.4797L32.2159 29.9247L0 4.36974ZM49.0952 36.8176C47.9312 37.7109 46.5057 38.1964 45.0385 38.1992C43.5738 38.2318 42.1417 37.7649 40.9777 36.8754L35.6872 32.6778L1.93265 59.4544C2.43326 59.7144 2.9892 59.8499 3.55332 59.8494H86.4477C87.0118 59.8498 87.5677 59.7143 88.0684 59.4544L54.3128 32.6778L49.0952 36.8176Z" fill="black"/>
</svg>
