<svg width="80" height="78" viewBox="0 0 80 78" fill="none" xmlns="http://www.w3.org/2000/svg">
<path fill-rule="evenodd" clip-rule="evenodd" d="M49.0032 26.3916C49.0032 24.3682 49.0032 22.3442 49.0032 20.3207C51.4666 20.3207 53.9299 20.3207 56.3938 20.3207C56.3938 23.5803 56.3327 26.5759 56.6577 29.8227C61.7662 39.3595 67.7457 48.7403 75.6617 56.2173C75.7502 61.7604 75.8372 67.3029 75.9257 72.8455C74.6935 74.2531 73.4618 75.6613 72.2301 77.0689C70.4701 77.0689 68.711 77.0689 66.951 77.0689C66.951 76.1011 66.951 75.1334 66.951 74.1657C49.0125 74.3387 30.987 74.3387 13.0484 74.1657C13.0484 75.1334 13.0484 76.1011 13.0484 77.0689C11.2884 77.0689 9.52886 77.0689 7.76932 77.0689C6.53715 75.6613 5.30547 74.2531 4.07379 72.8455C4.16177 67.3025 4.24975 61.7599 4.33772 56.2173C12.2542 48.7403 18.2327 39.3595 23.3417 29.8227C23.6668 26.5759 23.6057 23.5808 23.6057 20.3207C26.0695 20.3207 28.5324 20.3207 30.9962 20.3207C30.9962 22.3442 30.9962 24.3682 30.9962 26.3916C38.5652 26.2846 41.4342 26.2846 49.0032 26.3916ZM79.8167 26.5886L59.407 26.6766C59.5331 31.5075 62.1191 35.0764 78.304 33.0774C79.0664 30.7279 79.5606 28.5701 79.8167 26.5886ZM0.0576373 25.2787C6.90323 25.2489 13.7488 25.2196 20.5944 25.1898C19.3481 4.98779 60.6113 4.92132 59.4446 24.9483L79.9814 24.8599C81.4325 -8.41698 -2.50787 -8.29479 0.0576373 25.2787ZM20.635 26.918L0.238479 27.006C0.508275 28.9655 1.00974 31.094 1.77612 33.4078C17.8896 35.2573 20.5113 31.7123 20.635 26.918ZM39.9997 35.1004C30.7572 35.1004 23.2645 42.5271 23.2645 51.687C23.2645 60.8469 30.7572 68.2741 39.9997 68.2741C49.2422 68.2741 56.7349 60.8474 56.7349 51.687C56.7349 42.5266 49.2422 35.1004 39.9997 35.1004ZM27.4547 50.1191C26.1458 50.1191 25.0852 51.1802 25.0852 52.4886C25.0852 53.797 26.1453 54.8581 27.4547 54.8581C28.7636 54.8581 29.8237 53.797 29.8237 52.4886C29.8237 51.1802 28.7636 50.1191 27.4547 50.1191ZM29.4244 42.7901C28.116 42.7901 27.0554 43.8512 27.0554 45.1596C27.0554 46.468 28.116 47.5291 29.4244 47.5291C30.7333 47.5291 31.7939 46.468 31.7939 45.1596C31.7939 43.8512 30.7333 42.7901 29.4244 42.7901ZM36.006 37.6361C34.6976 37.6361 33.6365 38.6967 33.6365 40.0051C33.6365 41.3135 34.6976 42.3746 36.006 42.3746C37.3145 42.3746 38.3756 41.3135 38.3756 40.0051C38.3756 38.6967 37.315 37.6361 36.006 37.6361ZM52.5448 49.1156C51.2364 49.1156 50.1757 50.1767 50.1757 51.4851C50.1757 52.7936 51.2364 53.8547 52.5448 53.8547C53.8542 53.8547 54.9143 52.7936 54.9143 51.4851C54.9143 50.1767 53.8542 49.1156 52.5448 49.1156ZM50.6992 55.9304C49.3903 55.9304 48.3297 56.9915 48.3297 58.3C48.3297 59.6084 49.3903 60.6695 50.6992 60.6695C52.0081 60.6695 53.0687 59.6084 53.0687 58.3C53.0687 56.9915 52.0081 55.9304 50.6992 55.9304ZM44.8517 60.8088C43.5432 60.8088 42.4821 61.8694 42.4821 63.1778C42.4821 64.4862 43.5432 65.5478 44.8517 65.5478C46.1606 65.5478 47.2212 64.4862 47.2212 63.1778C47.2212 61.8694 46.1601 60.8088 44.8517 60.8088ZM37.1209 61.2799C35.812 61.2799 34.7514 62.341 34.7514 63.6495C34.7514 64.9584 35.812 66.0195 37.1209 66.0195C38.4293 66.0195 39.4899 64.9584 39.4899 63.6495C39.4899 62.341 38.4293 61.2799 37.1209 61.2799ZM30.4176 57.1807C29.1086 57.1807 28.048 58.2418 28.048 59.5502C28.048 60.8591 29.1086 61.9202 30.4176 61.9202C31.7265 61.9202 32.7866 60.8591 32.7866 59.5502C32.7871 58.2413 31.7265 57.1807 30.4176 57.1807ZM44.143 37.356C42.8341 37.356 41.7729 38.4166 41.7729 39.7251C41.7729 41.0335 42.8341 42.0946 44.143 42.0946C45.4519 42.0946 46.5125 41.0335 46.5125 39.7251C46.5125 38.4166 45.4519 37.356 44.143 37.356ZM50.3351 42.0491C49.0267 42.0491 47.9656 43.1102 47.9656 44.4186C47.9656 45.727 49.0267 46.7886 50.3351 46.7886C51.644 46.7886 52.7051 45.727 52.7051 44.4186C52.7051 43.1102 51.644 42.0491 50.3351 42.0491ZM39.9997 43.4817C35.4274 43.4817 31.7211 47.1557 31.7211 51.687C31.7211 56.2188 35.4274 59.8933 39.9997 59.8933C44.5716 59.8933 48.2789 56.2188 48.2789 51.687C48.2789 47.1557 44.5716 43.4817 39.9997 43.4817Z" fill="black"/>
</svg>
