<?xml version="1.0" encoding="UTF-8" standalone="no"?>
<!-- Created with Inkscape (http://www.inkscape.org/) -->

<svg
   width="290"
   height="230"
   viewBox="0 0 76.729165 60.854168"
   version="1.1"
   id="svg1079"
   xmlns="http://www.w3.org/2000/svg"
   xmlns:svg="http://www.w3.org/2000/svg">
  <defs
     id="defs1076" />
  <g
     id="layer1">
    <g
       id="g834"
       transform="matrix(0.3527778,0,0,-0.3527778,0.60508727,135.90149)">
      <text
         transform="matrix(1,0,0,-1,0,238.587)"
         style="font-variant:normal;font-weight:bold;font-size:28.9987px;font-family:Barlow;-inkscape-font-specification:Barlow-Bold;writing-mode:lr-tb;fill:#23282b;fill-opacity:1;fill-rule:nonzero;stroke:none"
         id="text838"><tspan
           x="0 17.63121 35.6394 56.373474 72.060555 91.518051 110.80219 128.69438 134.49413 153.77826 173.23575 193.96982"
           y="0"
           id="tspan836">COMPANY NAME</tspan></text>
      <text
         transform="matrix(1,0,0,-1,50.5691,216.86)"
         style="font-variant:normal;font-weight:300;font-size:16.4938px;font-family:Barlow;-inkscape-font-specification:Barlow-Light;writing-mode:lr-tb;fill:#23282b;fill-opacity:1;fill-rule:nonzero;stroke:none"
         id="text842"><tspan
           x="0 17.846209 35.41161 53.917904 72.341194 90.319206"
           y="0"
           id="tspan840">SLOGAN</tspan></text>
    </g>
    <path
       d="m 58.086349,18.909085 c 0,3.097741 -2.511072,5.608814 -5.608461,5.608814 -3.097742,0 -5.608814,-2.511073 -5.608814,-5.608814 0,-3.097742 2.511072,-5.608815 5.608814,-5.608815 3.097389,0 5.608461,2.511073 5.608461,5.608815"
       style="fill:#7ed5f0;fill-opacity:1;fill-rule:nonzero;stroke:none;stroke-width:0.0352778"
       id="path844" />
    <path
       d="m 19.544846,19.891924 c 0.185913,0.556683 -0.115218,1.159227 -0.672466,1.344789 -0.557141,0.185913 -1.15951,-0.115006 -1.345106,-0.672395 -0.185914,-0.557036 0.115182,-1.159228 0.672465,-1.345142 0.557001,-0.185914 1.159334,0.115359 1.345107,0.672748"
       style="fill:#7ed5f0;fill-opacity:1;fill-rule:nonzero;stroke:none;stroke-width:0.0352778"
       id="path846" />
    <path
       d="m 20.472404,16.716218 c 0.158468,0.475544 -0.09853,0.989542 -0.574075,1.148292 -0.475439,0.158397 -0.989577,-0.09842 -1.148045,-0.57397 -0.158644,-0.475897 0.09839,-0.989894 0.573934,-1.148292 0.47558,-0.15875 0.989577,0.09843 1.148186,0.57397"
       style="fill:#7ed5f0;fill-opacity:1;fill-rule:nonzero;stroke:none;stroke-width:0.0352778"
       id="path848" />
    <path
       d="m 19.397137,23.165702 c 0.158609,0.475544 -0.09842,0.989541 -0.573969,1.148291 -0.475686,0.158398 -0.989718,-0.09807 -1.148327,-0.573969 -0.158468,-0.475545 0.09853,-0.989542 0.574111,-1.148292 0.475544,-0.15875 0.989541,0.09842 1.148185,0.57397"
       style="fill:#7ed5f0;fill-opacity:1;fill-rule:nonzero;stroke:none;stroke-width:0.0352778"
       id="path850" />
    <path
       d="m 21.91396,13.533457 c 0.135326,0.405694 -0.08407,0.84455 -0.490008,0.979663 -0.405836,0.135467 -0.844762,-0.08361 -0.979946,-0.489655 -0.135467,-0.406047 0.08393,-0.844903 0.489902,-0.980017 0.405977,-0.135467 0.844727,0.08396 0.980052,0.490009"
       style="fill:#7ed5f0;fill-opacity:1;fill-rule:nonzero;stroke:none;stroke-width:0.0352778"
       id="path852" />
    <path
       d="m 19.270878,26.432777 c 0.135467,0.405694 -0.08378,0.84455 -0.489726,0.980016 -0.405835,0.135467 -0.844903,-0.08396 -0.980087,-0.490008 -0.135326,-0.405694 0.08393,-0.84455 0.489902,-0.980017 0.405836,-0.135113 0.844727,0.08396 0.979911,0.490009"
       style="fill:#7ed5f0;fill-opacity:1;fill-rule:nonzero;stroke:none;stroke-width:0.0352778"
       id="path854" />
    <path
       d="m 23.408715,11.085179 c 0,0.293863 -0.238125,0.531989 -0.531636,0.531989 -0.293652,0 -0.531636,-0.238126 -0.531636,-0.531989 0,-0.293864 0.237984,-0.531637 0.531636,-0.531637 0.293511,0 0.531636,0.237773 0.531636,0.531637"
       style="fill:#7ed5f0;fill-opacity:1;fill-rule:nonzero;stroke:none;stroke-width:0.0352778"
       id="path856" />
    <path
       d="m 19.067784,29.371063 c 0,0.293511 -0.238125,0.531636 -0.531812,0.531636 -0.293512,0 -0.531637,-0.238125 -0.531637,-0.531636 0,-0.293864 0.238125,-0.531989 0.531637,-0.531989 0.293687,0 0.531812,0.238125 0.531812,0.531989"
       style="fill:#7ed5f0;fill-opacity:1;fill-rule:nonzero;stroke:none;stroke-width:0.0352778"
       id="path858" />
    <path
       d="m 66.340997,34.133916 c -0.239889,0.03422 -0.926394,0.651581 -1.886656,0.754592 -0.960614,0.103011 -4.836936,0.892175 -5.76333,1.029053 -0.926042,0.13723 -3.636081,0.274461 -7.066493,0.240241 -3.430764,-0.03422 -7.752997,-1.235075 -9.948686,-2.092678 -2.195337,-0.857602 -3.842103,-0.583141 -5.762978,-0.857602 -1.921193,-0.274461 -7.684312,-1.955095 -7.684312,-1.955095 0,0 -0.874783,-0.02716 -1.69799,0.178858 l 1.62634,-0.609952 c -0.155151,-0.969081 -0.493888,-3.305176 -0.305787,-4.165953 0.240206,-1.097845 1.646766,-3.224742 1.955447,-4.082345 0.219781,-0.610306 -0.0641,-2.017536 -0.246133,-2.779184 -1.349904,-0.381 -3.029867,-1.278114 -3.029867,-1.278114 0.823207,0.257175 2.898704,0.764117 2.898704,0.764117 l 6.620828,1.269295 c 0,0 1.920875,0.617361 3.258961,0.857602 1.337734,0.240242 7.032273,0.17145 8.233129,0.240242 1.200503,0.06844 4.939947,0.51435 5.728758,0.51435 0.789164,0 2.092678,-0.03387 2.092678,-0.3429 0,-0.30868 -1.509536,-0.445911 -1.509536,-0.445911 0.240242,-0.03422 0.686153,-0.206022 1.543756,-0.377119 0.857603,-0.171803 0.514703,-0.892176 0.514703,-0.892176 0.651933,-0.06879 0.720372,-0.891822 0.274461,-0.789163 -0.445911,0.103011 -3.087512,0 -3.087512,0 0,0 1.337734,-0.377473 1.955448,-0.54857 0.617361,-0.171803 0.788811,-0.857603 0,-0.651933 -0.789164,0.205669 -4.734278,0.411691 -4.734278,0.411691 0,0 0.754591,-0.686152 1.406525,-0.823383 0.651933,-0.137231 0.994833,-0.891822 0.617714,-0.823383 -0.377473,0.06879 -1.200856,0.03457 -2.161117,0.343252 -0.960967,0.308681 -1.681339,0.994834 -2.538942,1.783645 -0.788811,0.171803 -3.430411,-0.788811 -5.111045,-1.200503 -1.680986,-0.411692 -4.871508,-0.686153 -6.037792,-0.789164 -1.166424,-0.102658 -3.05308,-1.132064 -4.459499,-1.886655 -1.406561,-0.754945 -3.018861,-1.440745 -3.018861,-1.440745 0,0 -1.355196,-0.453672 -2.487083,0 0,0 1.079394,-0.697089 2.713884,-0.492831 l 0.973878,-2.114197 c 0,0 1.989597,0.926042 2.538483,1.029053 0.548711,0.102658 1.475035,-2.8130497 1.475035,-2.8130497 l 0.651828,0.205669 c 0,0 0.274496,-0.51435 0.480236,-3.807883 0.20574,-3.2928284 -3.224601,-5.03519797 -5.454403,-3.6703007 -3.130903,1.9159367 -2.263987,5.6945397 -2.263987,5.6945397 -0.343147,1.715205 -2.435684,2.7100387 -3.739304,4.2537937 -1.142682,1.352903 -2.778689,4.596695 -3.396192,6.929262 -0.617502,2.332919 -0.720407,8.47337 -0.720407,9.776884 0,1.303867 -0.994834,2.6416 -1.234864,5.763331 -0.240065,3.12173 1.886656,5.625747 3.739163,5.728758 1.852365,0.103012 10.222689,-1.200502 11.49216,-1.303514 1.269153,-0.102658 5.111292,0.03422 5.111292,0.03422 0,0 1.886655,0.548922 5.385858,0.778933 3.498851,0.230364 8.267348,-0.333022 8.953501,-0.504472 0.686153,-0.17145 3.19017,-0.240242 4.802717,0.309033 1.612194,0.54857 2.84727,-0.206022 3.052939,-0.446264 0.205669,-0.239888 1.646767,-1.749425 2.881489,-2.126897 1.235075,-0.377119 1.99002,-1.166283 1.99002,-1.166283 0,0 0.754591,-0.3429 0.926041,-0.823384 0.17145,-0.48013 -0.30868,-0.823383 -0.548922,-0.788811"
       style="fill:#50c4ba;fill-opacity:1;fill-rule:nonzero;stroke:none;stroke-width:0.0352778"
       id="path860" />
    <path
       d="M 22.293902,40.171355 H 1.0246989 L 22.293902,38.715089 Z"
       style="fill:#50c4ba;fill-opacity:1;fill-rule:nonzero;stroke:none;stroke-width:0.0352778"
       id="path862" />
    <path
       d="m 59.358819,39.67535 h 15.64887 L 60.286977,38.715089 Z"
       style="fill:#50c4ba;fill-opacity:1;fill-rule:nonzero;stroke:none;stroke-width:0.0352778"
       id="path864" />
  </g>
</svg>
